<svg width="32" height="33" viewBox="0 0 32 33" fill="none" xmlns="http://www.w3.org/2000/svg">
<path d="M14.9999 17.5002H8.33325C8.04992 17.5002 7.81247 17.4043 7.62092 17.2125C7.42914 17.0207 7.33325 16.7832 7.33325 16.4998C7.33325 16.2163 7.42914 15.9788 7.62092 15.7875C7.81247 15.5959 8.04992 15.5002 8.33325 15.5002H14.9999V8.8335C14.9999 8.55016 15.0958 8.31272 15.2876 8.12116C15.4794 7.92939 15.7169 7.8335 16.0003 7.8335C16.2838 7.8335 16.5213 7.92939 16.7126 8.12116C16.9041 8.31272 16.9999 8.55016 16.9999 8.8335V15.5002H23.6666C23.9499 15.5002 24.1874 15.5961 24.3789 15.7878C24.5707 15.9796 24.6666 16.2172 24.6666 16.5005C24.6666 16.7841 24.5707 17.0215 24.3789 17.2128C24.1874 17.4044 23.9499 17.5002 23.6666 17.5002H16.9999V24.1668C16.9999 24.4502 16.904 24.6876 16.7123 24.8792C16.5205 25.0709 16.2829 25.1668 15.9996 25.1668C15.716 25.1668 15.4786 25.0709 15.2873 24.8792C15.0957 24.6876 14.9999 24.4502 14.9999 24.1668V17.5002Z" fill="#3A3A3A"/>
</svg>
