<svg width="32" height="33" viewBox="0 0 32 33" fill="none" xmlns="http://www.w3.org/2000/svg">
<path d="M15.0002 17.5002H8.3335C8.05016 17.5002 7.81272 17.4043 7.62116 17.2125C7.42939 17.0207 7.3335 16.7832 7.3335 16.4998C7.3335 16.2163 7.42939 15.9788 7.62116 15.7875C7.81272 15.5959 8.05016 15.5002 8.3335 15.5002H15.0002V8.8335C15.0002 8.55016 15.0961 8.31272 15.2878 8.12116C15.4796 7.92939 15.7172 7.8335 16.0005 7.8335C16.2841 7.8335 16.5215 7.92939 16.7128 8.12116C16.9044 8.31272 17.0002 8.55016 17.0002 8.8335V15.5002H23.6668C23.9502 15.5002 24.1876 15.5961 24.3792 15.7878C24.5709 15.9796 24.6668 16.2172 24.6668 16.5005C24.6668 16.7841 24.5709 17.0215 24.3792 17.2128C24.1876 17.4044 23.9502 17.5002 23.6668 17.5002H17.0002V24.1668C17.0002 24.4502 16.9043 24.6876 16.7125 24.8792C16.5207 25.0709 16.2832 25.1668 15.9998 25.1668C15.7163 25.1668 15.4788 25.0709 15.2875 24.8792C15.0959 24.6876 15.0002 24.4502 15.0002 24.1668V17.5002Z" fill="#3A3A3A"/>
</svg>
