<svg width="25" height="20" viewBox="0 0 25 20" fill="none" xmlns="http://www.w3.org/2000/svg">
<path d="M24.0232 10.9191H21.2618C20.9844 10.9191 20.752 10.8252 20.5644 10.6375C20.3767 10.4497 20.2828 10.2171 20.2828 9.93975C20.2828 9.66215 20.3767 9.4297 20.5644 9.24238C20.752 9.05485 20.9844 8.96109 21.2618 8.96109H24.0232C24.3006 8.96109 24.5331 9.05496 24.7206 9.24271C24.9084 9.43046 25.0022 9.66302 25.0022 9.94041C25.0022 10.218 24.9084 10.4505 24.7206 10.6378C24.5331 10.8253 24.3006 10.9191 24.0232 10.9191ZM18.5934 16.0927C18.7607 15.8634 18.9746 15.7312 19.235 15.6959C19.4952 15.6609 19.7399 15.727 19.9692 15.8943L22.1707 17.5485C22.4 17.716 22.5321 17.9299 22.5671 18.1901C22.6024 18.4503 22.5363 18.695 22.3687 18.9243C22.2014 19.1534 21.9877 19.2856 21.7275 19.3208C21.4673 19.3561 21.2225 19.2899 20.9932 19.1224L18.7918 17.4682C18.5625 17.3009 18.4303 17.0872 18.3953 16.827C18.3601 16.5668 18.4261 16.322 18.5934 16.0927ZM22.1204 2.2814L19.919 3.93558C19.6897 4.10288 19.4449 4.16901 19.1847 4.13399C18.9245 4.09874 18.7107 3.96647 18.5431 3.73717C18.3758 3.50808 18.3098 3.26333 18.3451 3.00292C18.3801 2.74273 18.5123 2.52898 18.7416 2.36168L20.943 0.707506C21.1723 0.540206 21.417 0.474069 21.6772 0.509095C21.9374 0.544339 22.1513 0.676504 22.3188 0.905589C22.4861 1.13489 22.5521 1.37964 22.5169 1.63984C22.4819 1.90025 22.3497 2.1141 22.1204 2.2814ZM3.69016 13.3039H2.3597C1.71074 13.3039 1.15521 13.0729 0.693129 12.6108C0.231043 12.1487 0 11.5932 0 10.9442V8.93596C0 8.28699 0.231043 7.73147 0.693129 7.26938C1.15521 6.8073 1.71074 6.57625 2.3597 6.57625H7.40545L11.4644 4.149C11.8577 3.91295 12.2543 3.91165 12.6542 4.14508C13.0542 4.3783 13.2543 4.71845 13.2543 5.16552V14.7146C13.2543 15.1617 13.0542 15.5019 12.6542 15.7351C12.2543 15.9685 11.8577 15.9672 11.4644 15.7312L7.40545 13.3039H5.64815V17.4206C5.64815 17.698 5.55427 17.9304 5.36652 18.118C5.17878 18.3057 4.94621 18.3996 4.66883 18.3996C4.39123 18.3996 4.15877 18.3057 3.97146 18.118C3.78392 17.9304 3.69016 17.698 3.69016 17.4206V13.3039ZM15.0615 14.0117V5.86844C15.5736 6.33205 15.9861 6.91716 16.299 7.62378C16.612 8.3304 16.7686 9.10347 16.7686 9.94302C16.7686 10.7828 16.612 11.555 16.299 12.2596C15.9861 12.9641 15.5736 13.5481 15.0615 14.0117Z" fill="#5F6368"/>
</svg>
