<svg width="23" height="22" viewBox="0 0 23 22" fill="none" xmlns="http://www.w3.org/2000/svg">
<path d="M13.86 1.94118L20.46 8.41176H15.053C14.715 8.41176 14.4317 8.29971 14.2029 8.07562C13.9743 7.8513 13.86 7.5735 13.86 7.24221V1.94118ZM2.38623 -1.90735e-06C1.72997 -1.90735e-06 1.1682 0.229057 0.70092 0.687176C0.23364 1.14529 0 1.69605 0 2.33944V19.6606C0 20.304 0.23364 20.8547 0.70092 21.3128C1.1682 21.7709 1.72997 22 2.38623 22H20.0538C20.71 22 21.2718 21.7709 21.7391 21.3128C22.2064 20.8547 22.44 20.304 22.44 19.6606V8.54603C22.44 8.23048 22.3782 7.92971 22.2545 7.64371C22.1311 7.35771 21.9611 7.10859 21.7444 6.89635L15.4057 0.681999C15.1892 0.469549 14.9351 0.302822 14.6434 0.181822C14.3517 0.060606 14.0449 -1.90735e-06 13.723 -1.90735e-06H2.38623ZM6.19377 8.7602H10.23C10.5105 8.7602 10.7457 8.85327 10.9355 9.03941C11.1252 9.22555 11.22 9.45612 11.22 9.73112C11.22 10.0063 11.1252 10.2368 10.9355 10.4225C10.7457 10.6084 10.5105 10.7014 10.23 10.7014H6.19377C5.91327 10.7014 5.6782 10.6083 5.48856 10.4222C5.2987 10.236 5.20377 10.0055 5.20377 9.73047C5.20377 9.45525 5.2987 9.22479 5.48856 9.03909C5.6782 8.85317 5.91327 8.7602 6.19377 8.7602ZM6.19377 13.9118H16.2462C16.5267 13.9118 16.7618 14.0048 16.9514 14.191C17.1413 14.3771 17.2362 14.6077 17.2362 14.8827C17.2362 15.1579 17.1413 15.3884 16.9514 15.5741C16.7618 15.76 16.5267 15.8529 16.2462 15.8529H6.19377C5.91327 15.8529 5.6782 15.7599 5.48856 15.5737C5.2987 15.3876 5.20377 15.157 5.20377 14.882C5.20377 14.6068 5.2987 14.3764 5.48856 14.1906C5.6782 14.0047 5.91327 13.9118 6.19377 13.9118Z" fill="#606060"/>
</svg>
