<svg width="24" height="23" viewBox="0 0 24 23" fill="none" xmlns="http://www.w3.org/2000/svg">
<path d="M10.3442 14.004L7.634 11.2936C7.47242 11.1322 7.26932 11.0496 7.02471 11.0457C6.78029 11.042 6.5735 11.1246 6.40433 11.2936C6.23536 11.4627 6.15088 11.6677 6.15088 11.9084C6.15088 12.1491 6.23536 12.3541 6.40433 12.5232L9.60596 15.7249C9.81693 15.9356 10.063 16.041 10.3442 16.041C10.6253 16.041 10.8714 15.9356 11.0824 15.7249L17.5731 9.23412C17.7345 9.07254 17.8172 8.86944 17.821 8.62483C17.8247 8.38041 17.7421 8.17362 17.5731 8.00446C17.404 7.83548 17.199 7.751 16.9583 7.751C16.7176 7.751 16.5126 7.83548 16.3435 8.00446L10.3442 14.004ZM12.002 22.5834C10.469 22.5834 9.02807 22.2925 7.67921 21.7107C6.33035 21.129 5.15707 20.3394 4.15938 19.3421C3.16168 18.3448 2.37175 17.172 1.78958 15.8237C1.20761 14.4755 0.916626 13.0349 0.916626 11.5021C0.916626 9.96912 1.20751 8.52819 1.78929 7.17933C2.37107 5.83047 3.16061 4.65719 4.15792 3.6595C5.15522 2.6618 6.32801 1.87187 7.67629 1.28971C9.02457 0.707734 10.4651 0.416748 11.9979 0.416748C13.5309 0.416748 14.9718 0.707636 16.3207 1.28941C17.6696 1.87119 18.8428 2.66073 19.8405 3.65804C20.8382 4.65534 21.6282 5.82814 22.2103 7.17641C22.7923 8.52469 23.0833 9.96523 23.0833 11.498C23.0833 13.031 22.7924 14.472 22.2106 15.8208C21.6288 17.1697 20.8393 18.343 19.842 19.3407C18.8447 20.3384 17.6719 21.1283 16.3236 21.7105C14.9753 22.2924 13.5348 22.5834 12.002 22.5834Z" fill="#606060"/>
</svg>
